# xmcd
#
# Track frame offsets:
#	150
#	11765
#	31160
#	74893
#	146064
#	171158
#	195597
#	231381
#
# Disc length: 3349 seconds
#
# Revision: 1
# Processed by: cddbd v1.5.2PL0 Copyright (c) Steve Scherf et al.
# Submitted via: audiograbber 1.83.01
#
DISCID=740d1308
DTITLE=Grateful Dead - 73-11-09 Winterland Arena, San Francisco CA
DYEAR=1900
DGENRE=
TTITLE0=WRS Prelude
TTITLE1=WRS Part One
TTITLE2=Let It Grow
TTITLE3=Eyes Of The World
TTITLE4=China Doll
TTITLE5=Around and Around
TTITLE6=GDTRFB
TTITLE7=Johnny B Goode
EXTD=
EXTT0=
EXTT1=
EXTT2=
EXTT3=
EXTT4=
EXTT5=
EXTT6=
EXTT7=
PLAYORDER=
